<svg xmlns="http://www.w3.org/2000/svg" viewBox="0 0 32 32" fill="none">
  <rect width="32" height="32" rx="7" fill="#3776AB"/>
  <path d="M9 8.5C9 7.67 9.67 7 10.5 7H17l5 5v11.5c0 .83-.67 1.5-1.5 1.5h-10c-.83 0-1.5-.67-1.5-1.5V8.5z" fill="#fff" fill-opacity="0.95"/>
  <path d="M17 7l5 5h-3.5c-.83 0-1.5-.67-1.5-1.5V7z" fill="#3776AB" fill-opacity="0.35"/>
  <rect x="12" y="14.5" width="6" height="1.4" rx="0.7" fill="#3776AB"/>
  <rect x="12" y="17.2" width="6" height="1.4" rx="0.7" fill="#3776AB"/>
  <rect x="12" y="19.9" width="3.5" height="1.4" rx="0.7" fill="#3776AB"/>
  <path d="M20.5 16.5l3 3-3 3" stroke="#FFD43B" stroke-width="1.6" stroke-linecap="round" stroke-linejoin="round"/>
  <path d="M18 19.5h5.5" stroke="#FFD43B" stroke-width="1.6" stroke-linecap="round"/>
</svg>
